<mxfile host="app.diagrams.net" modified="2024-07-08T12:43:39.833Z" agent="Mozilla/5.0 (Windows NT 10.0; Win64; x64) AppleWebKit/537.36 (KHTML, like Gecko) Chrome/126.0.0.0 Safari/537.36 Edg/126.0.0.0" etag="3ZvcRwNH1g-ZNzJj0V6B" version="24.6.4" type="device">
  <diagram name="Page-1" id="c4acf3e9-155e-7222-9cf6-157b1a14988f">
    <mxGraphModel dx="1188" dy="654" grid="1" gridSize="10" guides="1" tooltips="1" connect="1" arrows="1" fold="1" page="1" pageScale="1" pageWidth="850" pageHeight="1100" background="none" math="0" shadow="0">
      <root>
        <mxCell id="0" />
        <mxCell id="1" parent="0" />
        <mxCell id="17acba5748e5396b-20" value="MAIN" style="swimlane;html=1;fontStyle=0;childLayout=stackLayout;horizontal=1;startSize=26;fillColor=none;horizontalStack=0;resizeParent=1;resizeLast=0;collapsible=1;marginBottom=0;swimlaneFillColor=#ffffff;rounded=0;shadow=0;comic=0;labelBackgroundColor=none;strokeWidth=1;fontFamily=Verdana;fontSize=10;align=center;" parent="1" vertex="1">
          <mxGeometry x="350" y="42" width="160" height="52" as="geometry" />
        </mxCell>
        <mxCell id="17acba5748e5396b-21" value="+ main(args:String[]): void" style="text;html=1;strokeColor=none;fillColor=none;align=left;verticalAlign=top;spacingLeft=4;spacingRight=4;whiteSpace=wrap;overflow=hidden;rotatable=0;points=[[0,0.5],[1,0.5]];portConstraint=eastwest;" parent="17acba5748e5396b-20" vertex="1">
          <mxGeometry y="26" width="160" height="26" as="geometry" />
        </mxCell>
        <mxCell id="5d2195bd80daf111-18" value="&lt;p style=&quot;margin:0px;margin-top:4px;text-align:center;&quot;&gt;&lt;i&gt;Ukraine&lt;/i&gt;&lt;/p&gt;&lt;hr size=&quot;1&quot;&gt;&lt;p style=&quot;margin:0px;margin-left:4px;&quot;&gt;- single: Ukraine&lt;br&gt;+ capital: String&lt;/p&gt;&lt;hr size=&quot;1&quot;&gt;&lt;p style=&quot;margin:0px;margin-left:4px;&quot;&gt;- Ukraine(capital: Ukraine)&lt;br&gt;+ getInstance(Capital, String): Ukraine&lt;/p&gt;" style="verticalAlign=top;align=left;overflow=fill;fontSize=12;fontFamily=Helvetica;html=1;rounded=0;shadow=0;comic=0;labelBackgroundColor=none;strokeWidth=1" parent="1" vertex="1">
          <mxGeometry x="60" y="170" width="210" height="140" as="geometry" />
        </mxCell>
        <mxCell id="CDHmN9wWCsO5tnMuyOiz-9" value="" style="endArrow=block;dashed=1;endFill=0;endSize=12;html=1;rounded=0;exitX=0;exitY=0.846;exitDx=0;exitDy=0;entryX=1;entryY=0;entryDx=0;entryDy=0;exitPerimeter=0;" edge="1" parent="1" source="17acba5748e5396b-21" target="5d2195bd80daf111-18">
          <mxGeometry width="160" relative="1" as="geometry">
            <mxPoint x="270" y="160" as="sourcePoint" />
            <mxPoint x="430" y="150" as="targetPoint" />
          </mxGeometry>
        </mxCell>
        <mxCell id="CDHmN9wWCsO5tnMuyOiz-14" value="" style="html=1;shadow=0;dashed=0;align=center;verticalAlign=middle;shape=mxgraph.arrows2.arrow;dy=0;dx=10;notch=0;rotation=-170;" vertex="1" parent="1">
          <mxGeometry x="153.09" y="225.39" width="216.84" height="0.43" as="geometry" />
        </mxCell>
        <mxCell id="CDHmN9wWCsO5tnMuyOiz-15" value="" style="verticalLabelPosition=bottom;verticalAlign=top;html=1;shape=mxgraph.basic.diag_snip_rect;dx=6;whiteSpace=wrap;rotation=-180;" vertex="1" parent="1">
          <mxGeometry x="350" y="210" width="100" height="60" as="geometry" />
        </mxCell>
        <mxCell id="CDHmN9wWCsO5tnMuyOiz-16" value="&lt;div style=&quot;text-align: justify; font-size: 8px;&quot;&gt;&lt;font style=&quot;font-size: 8px;&quot;&gt;Конструктор містить&lt;/font&gt;&lt;/div&gt;&lt;div style=&quot;text-align: justify; font-size: 8px;&quot;&gt;&lt;span style=&quot;background-color: initial;&quot;&gt;&lt;font style=&quot;font-size: 8px;&quot;&gt;Thread.sleep(1000)&lt;/font&gt;&lt;/span&gt;&lt;/div&gt;" style="text;html=1;align=center;verticalAlign=middle;whiteSpace=wrap;rounded=0;" vertex="1" parent="1">
          <mxGeometry x="360" y="225" width="80" height="35" as="geometry" />
        </mxCell>
        <mxCell id="CDHmN9wWCsO5tnMuyOiz-17" value="" style="html=1;shadow=0;dashed=0;align=center;verticalAlign=middle;shape=mxgraph.arrows2.arrow;dy=1;dx=13.76;notch=9.47;rotation=-135;" vertex="1" parent="1">
          <mxGeometry x="411.46" y="156.46" width="220" height="19.01" as="geometry" />
        </mxCell>
        <mxCell id="CDHmN9wWCsO5tnMuyOiz-18" value="" style="verticalLabelPosition=bottom;verticalAlign=top;html=1;shape=mxgraph.basic.diag_snip_rect;dx=6;whiteSpace=wrap;rotation=-180;" vertex="1" parent="1">
          <mxGeometry x="580" y="225" width="180" height="120" as="geometry" />
        </mxCell>
        <mxCell id="CDHmN9wWCsO5tnMuyOiz-19" value="&lt;div style=&quot;text-align: justify; font-size: 10px;&quot;&gt;&lt;div&gt;Створює три екземпляри Ukraine&lt;/div&gt;&lt;div&gt;&amp;nbsp; з різними назвами столиць,&lt;/div&gt;&lt;div&gt;&amp;nbsp; але отримує один і той же об&#39;єкт&lt;/div&gt;&lt;/div&gt;" style="text;html=1;align=center;verticalAlign=middle;whiteSpace=wrap;rounded=0;" vertex="1" parent="1">
          <mxGeometry x="590" y="245" width="160" height="85" as="geometry" />
        </mxCell>
      </root>
    </mxGraphModel>
  </diagram>
</mxfile>
